
        <svg xmlns="http://www.w3.org/2000/svg" xmlns:xlink="http://www.w3.org/1999/xlink" version="1.1" width="3162.3047003037877" 
        height="1451.2844350370444" viewBox="0 0 3162.3047003037877 1451.2844350370444">
			
			<g transform="scale(8.115235015189413) translate(10, 10)">
				<defs id="SvgjsDefs1834"></defs><g id="SvgjsG1835" featureKey="symbolFeature-0" transform="matrix(1.4239127843027353,0,0,1.4239127843027353,-27.00959576461709,8.374884895137132)" fill="#46cdcf"><title xmlns="http://www.w3.org/2000/svg">avatar simple JADI</title><path xmlns="http://www.w3.org/2000/svg" d="M65.66,47.15h0c.77,0,1.64-1.22,1.64-2.79A3.88,3.88,0,0,0,67,42.72a.7.7,0,0,0-1.26.59,2.46,2.46,0,0,1,.21,1,2,2,0,0,1-.46,1.43.7.7,0,0,0,.2,1.37Z"></path><path xmlns="http://www.w3.org/2000/svg" d="M34.32,47.15h0a.7.7,0,0,0,.2-1.37,2,2,0,0,1-.46-1.43,2.47,2.47,0,0,1,.21-1A.7.7,0,0,0,33,42.72a3.9,3.9,0,0,0-.34,1.64C32.68,45.93,33.55,47.13,34.32,47.15Z"></path><path xmlns="http://www.w3.org/2000/svg" d="M77.52,42.95c-5.68-3.66-5.88-4.57-6.55-7.59,0-.13-3-13.14-11.36-16.58a8.5,8.5,0,0,0-7.13,0,5.67,5.67,0,0,1-5,0,8.5,8.5,0,0,0-7.13,0C32,22.22,29.06,35.22,29,35.36c-.67,3-.87,3.92-6.55,7.58-6.32,4.08-2.13,16-2,16.53a.7.7,0,0,0,1,.36,6.17,6.17,0,0,1,7,.57C32,63.29,34.59,63.1,35.28,63c.6.1,3.18.54,6.08.85l-7.1,1.89a9.07,9.07,0,0,0-6.73,8.76v6.82a.7.7,0,0,0,.7.7H71.77a.7.7,0,0,0,.7-.7V74.49a9.07,9.07,0,0,0-6.73-8.76l-7.1-1.89c2.9-.31,5.48-.75,6.08-.85a4.13,4.13,0,0,0,.7.05c1.15,0,3.35-.37,6.06-2.63a6.17,6.17,0,0,1,7-.57.7.7,0,0,0,1-.36C79.65,59,83.84,47,77.52,42.95Zm-15.67.11c-.66-2-2.68-3.28-5.52-3.28-3.21,0-5.37,1.6-5.7,4.12H49.36c-.33-2.53-2.49-4.12-5.7-4.12-2.83,0-4.85,1.24-5.51,3.28l-3.07-3.38c1-1.06,3.64-3.59,6-3A9,9,0,0,0,52,31.87,27.24,27.24,0,0,0,56.48,36a8.34,8.34,0,0,0,3.09,1.24,11.78,11.78,0,0,1,5.27,2.55ZM60.7,44.6a4.36,4.36,0,0,1-8.71,0c0-3.18,3.33-3.43,4.36-3.43S60.7,41.42,60.7,44.6ZM48,44.6a4.36,4.36,0,0,1-8.71,0c0-3.18,3.33-3.43,4.36-3.43S48,41.42,48,44.6ZM33.87,40.42l4.05,4.46a5.74,5.74,0,0,0,11.44.41h1.27a5.74,5.74,0,0,0,11.44-.41l4.05-4.46c1.37.31,2.4,2,2.4,3.94,0,2.16-1.26,4-2.81,4a.69.69,0,0,0-.23,0h0l0,0a.69.69,0,0,0-.17.11l-.06.07a.68.68,0,0,0-.09.13l0,.09,0,0c-1.4,5-5.36,10.09-10.75,11.92h-.06a13.84,13.84,0,0,1-2,.52l-.24,0-.82.1-.8,0h-.7l-.82,0-.8-.1-.26,0a13.81,13.81,0,0,1-2-.52h-.06c-5.39-1.84-9.34-6.9-10.75-11.92l0-.05,0-.09a.68.68,0,0,0-.09-.13l-.06-.06a.69.69,0,0,0-.18-.11l0,0h0a.7.7,0,0,0-.23,0c-1.55,0-2.81-1.84-2.81-4C31.47,42.39,32.5,40.73,33.87,40.42Zm5.22,17.89a18,18,0,0,0,2.75,2.17c.05.49.16,1.31.29,2-.85-.08-1.69-.18-2.46-.28Zm4.26,3a15.62,15.62,0,0,0,1.47.63v.76l-1.25-.08C43.5,62.29,43.42,61.81,43.35,61.32Zm2.87,2.12v-1a14.71,14.71,0,0,0,1.53.32l.49.07.54.06c.38,0,.76.06,1.14.06h.18c.38,0,.75,0,1.13-.06l.55-.06.48-.07a14.69,14.69,0,0,0,1.54-.32v2.29c0,.65-1.47,1.59-3.78,1.59s-3.78-.94-3.78-1.59Zm9-.73V62a15.61,15.61,0,0,0,1.47-.63c-.07.49-.15,1-.23,1.32Zm3-2.24a18,18,0,0,0,2.75-2.17l-.58,3.92c-.78.1-1.61.2-2.46.28C58,61.8,58.1,61,58.16,60.48ZM34.58,51.94a20.63,20.63,0,0,0,2.83,4.57L38.23,62c-1.05-.15-1.89-.29-2.38-.37A55.12,55.12,0,0,1,34.58,51.94ZM71.08,74.49v6.12H67.75V77.54a.7.7,0,0,0-1.39,0v3.06H33.65V77.54a.7.7,0,0,0-1.39,0v3.06H28.92V74.49a7.68,7.68,0,0,1,5.69-7.41l10.21-2.72v.34c0,1.7,2.22,3,5.17,3s5.17-1.28,5.17-3v-.34l10.21,2.72A7.68,7.68,0,0,1,71.08,74.49ZM64.15,61.67c-.49.08-1.32.22-2.38.37l.81-5.53a20.63,20.63,0,0,0,2.83-4.57A55.12,55.12,0,0,1,64.15,61.67Zm14.25-3.4a7.46,7.46,0,0,0-7.81,1.07,8.55,8.55,0,0,1-5,2.31c.47-2.27,1.69-8.78,1-12,1.91-.54,3.32-2.66,3.32-5.24,0-2.76-1.66-5-3.8-5.34a13.16,13.16,0,0,0-6.21-3.16,7.18,7.18,0,0,1-2.61-1,23.84,23.84,0,0,1-4.95-4.7.7.7,0,0,0-1.23.19,7.8,7.8,0,0,1-9.66,5c-3.49-.87-6.94,2.83-7.7,3.71-2.09.37-3.68,2.61-3.68,5.31s1.41,4.7,3.32,5.24c-.67,3.26.55,9.77,1,12a8.55,8.55,0,0,1-5-2.3,7.46,7.46,0,0,0-7.81-1.07c-.78-2.58-3-11.19,1.63-14.15,5.9-3.81,6.38-5,7.16-8.46s4.15-13,10.53-15.59a7.06,7.06,0,0,1,6,0,7.07,7.07,0,0,0,6.18,0,7.06,7.06,0,0,1,6,0c6.38,2.63,9.76,12.14,10.53,15.6s1.26,4.65,7.16,8.45C81.35,47.08,79.17,55.69,78.4,58.27Z"></path><path xmlns="http://www.w3.org/2000/svg" d="M48.39,28.37a.7.7,0,0,0-.87.45c0,.14-1.15,3.4-5.85,2.39-5.9-1.26-8.14,3.26-8.16,3.3a.7.7,0,1,0,1.26.6s1.78-3.58,6.61-2.54c6,1.28,7.46-3.3,7.47-3.34A.69.69,0,0,0,48.39,28.37Z"></path><path xmlns="http://www.w3.org/2000/svg" d="M55.08,22a.7.7,0,1,0,.62,1.25s2.87-1.37,5.72,1.6a.7.7,0,0,0,1-1C58.88,20.17,55.12,22,55.08,22Z"></path><path xmlns="http://www.w3.org/2000/svg" d="M72.74,43.31a.7.7,0,0,0-.56,1.28c.24.11,5.95,2.69,5,7.93a.7.7,0,0,0,.56.81h.12a.7.7,0,0,0,.69-.57C79.7,46.44,72.81,43.34,72.74,43.31Z"></path><path xmlns="http://www.w3.org/2000/svg" d="M27.26,43.31c-.07,0-7,3.13-5.83,9.45a.7.7,0,0,0,.69.57h.12a.7.7,0,0,0,.56-.81c-.93-5.23,4.77-7.82,5-7.93a.7.7,0,0,0-.56-1.28Z"></path></g><g id="SvgjsG1836" featureKey="nameFeature-0" transform="matrix(4.340338601060076,0,0,4.340338601060076,102.06631792274825,-55.356677259582305)" fill="#111111"><path d="M21.797 40 l-2.4609 -6.8359 l-12.637 0 l-2.4609 6.8359 l-2.8711 0 l10.039 -27.246 l3.2031 0 l10.039 27.246 l-2.8516 0 z M7.5977 30.6836 l10.84 0 l-5.4297 -15.078 z M61.6561875 40 l-2.5977 0 l-1.8164 -23.145 l-9.3359 23.145 l-1.5234 0 l-9.2773 -22.988 l-1.8359 22.988 l-2.6172 0 l2.0117 -27.246 l3.3594 0 l9.1211 22.539 l9.1211 -22.539 l3.3984 0 z"></path></g><g id="SvgjsG1837" featureKey="sloganFeature-0" transform="matrix(1.4562898247673164,0,0,1.4562898247673164,105.09878025439383,129.43854267811938)" fill="#111111"><path d="M7.5293 6.074 c2.6172 0 4.2871 1.9629 4.2871 4.3848 c0 2.4609 -1.6699 4.3457 -4.2871 4.3457 l-3.2031 0 l0 5.1953 l-2.334 0 l0 -13.926 l5.5371 0 z M7.1582 12.8125 c1.5625 0 2.3828 -0.95703 2.3828 -2.3828 c0 -1.377 -0.82031 -2.3828 -2.3828 -2.3828 l-2.832 0 l0 4.7656 l2.832 0 z M25.36568203125 20.18555 c-4.0039 0 -7.0313 -2.7441 -7.0313 -7.1582 c0 -4.4043 3.0273 -7.1484 7.0313 -7.1484 c3.9941 0 7.0215 2.7441 7.0215 7.1484 c0 4.4141 -3.0273 7.1582 -7.0215 7.1582 z M25.36568203125 18.0176 c2.6367 0 4.6973 -1.8262 4.6973 -4.9902 c0 -3.1348 -2.0605 -4.9707 -4.6973 -4.9707 s-4.6973 1.8359 -4.6973 4.9707 c0 3.1641 2.0605 4.9902 4.6973 4.9902 z M47.5869546875 20 l-3.6133 -6.2109 l-1.5039 0 l0 6.2109 l-2.334 0 l0 -13.926 l4.834 0 c3.0176 0 4.3457 1.8066 4.3457 4.043 c0 1.9434 -1.1523 3.252 -2.998 3.584 l4.0137 6.2988 l-2.7441 0 z M42.4697546875 8.047 l0 4.0137 l2.1582 0 c1.709 0 2.4414 -0.80078 2.4414 -1.9922 c0 -1.1816 -0.73242 -2.0215 -2.4414 -2.0215 l-2.1582 0 z M65.30611796875 6.074 l0 2.0801 l-3.4375 0 l0 11.846 l-2.3242 0 l0 -11.846 l-3.4473 0 l0 -2.0801 l9.209 0 z M80.36909375 8.154 l-5.5176 0 l0 3.8477 l4.7852 0 l0 2.0703 l-4.7852 0 l0 5.9277 l-2.3633 0 l0 -13.926 l7.8809 0 l0 2.0801 z M93.86958828125 20.18555 c-4.0039 0 -7.0313 -2.7441 -7.0313 -7.1582 c0 -4.4043 3.0273 -7.1484 7.0313 -7.1484 c3.9941 0 7.0215 2.7441 7.0215 7.1484 c0 4.4141 -3.0273 7.1582 -7.0215 7.1582 z M93.86958828125 18.0176 c2.6367 0 4.6973 -1.8262 4.6973 -4.9902 c0 -3.1348 -2.0605 -4.9707 -4.6973 -4.9707 s-4.6973 1.8359 -4.6973 4.9707 c0 3.1641 2.0605 4.9902 4.6973 4.9902 z M110.9736609375 17.9102 l4.5996 0 l0 2.0898 l-6.9336 0 l0 -13.926 l2.334 0 l0 11.836 z M122.77491484375 20 l0 -13.926 l2.334 0 l0 13.926 l-2.334 0 z M139.878865625 20.18555 c-4.0039 0 -7.0313 -2.7441 -7.0313 -7.1582 c0 -4.4043 3.0273 -7.1484 7.0313 -7.1484 c3.9941 0 7.0215 2.7441 7.0215 7.1484 c0 4.4141 -3.0273 7.1582 -7.0215 7.1582 z M139.878865625 18.0176 c2.6367 0 4.6973 -1.8262 4.6973 -4.9902 c0 -3.1348 -2.0605 -4.9707 -4.6973 -4.9707 s-4.6973 1.8359 -4.6973 4.9707 c0 3.1641 2.0605 4.9902 4.6973 4.9902 z"></path></g>
			</g>
		</svg>
	